<svg width="420" height="120" viewBox="0 0 420 120" fill="none" xmlns="http://www.w3.org/2000/svg">
  <defs>
    <linearGradient id="grad-bg" x1="0" y1="0" x2="1" y2="1">
      <stop offset="0%" stop-color="#f97316"/>
      <stop offset="50%" stop-color="#ec4899"/>
      <stop offset="100%" stop-color="#22d3ee"/>
    </linearGradient>
    <linearGradient id="grad-text" x1="0" y1="0" x2="1" y2="0">
      <stop offset="0%" stop-color="#fefce8"/>
      <stop offset="100%" stop-color="#e5e7eb"/>
    </linearGradient>
  </defs>

  <!-- Hintergrund-Badge -->
  <rect x="8" y="12" rx="24" ry="24" width="404" height="96"
        fill="#020617" stroke="rgba(248,250,252,0.12)" stroke-width="1.2"/>

  <!-- Sunset-Kreis -->
  <circle cx="70" cy="60" r="34" fill="url(#grad-bg)"/>

  <!-- Palmensilhouette -->
  <g transform="translate(70,60)" fill="#020617">
    <!-- Stamm -->
    <rect x="-3" y="-4" width="6" height="32" rx="3"/>
    <!-- Blätter -->
    <path d="M0 -4 C 10 -22, 26 -20, 30 -10 C 18 -10, 10 -6, 0 -4 Z"/>
    <path d="M0 -4 C -10 -22, -26 -20, -30 -10 C -18 -10, -10 -6, 0 -4 Z"/>
    <path d="M0 -4 C 8 -18, 18 -18, 22 -12 C 14 -10, 8 -7, 0 -4 Z"/>
    <path d="M0 -4 C -8 -18, -18 -18, -22 -12 C -14 -10, -8 -7, 0 -4 Z"/>
  </g>

  <!-- Text: Sytrex UI -->
  <text x="130" y="58"
        font-family="system-ui, -apple-system, BlinkMacSystemFont, 'Segoe UI', sans-serif"
        font-size="30"
        font-weight="700"
        fill="url(#grad-text)">
    Sytrex UI
  </text>

  <!-- Unterzeile -->
  <text x="132" y="82"
        font-family="system-ui, -apple-system, BlinkMacSystemFont, 'Segoe UI', sans-serif"
        font-size="13"
        letter-spacing="0.12em"
        fill="#9ca3af">
    WEB COMPONENT FRAMEWORK
  </text>
</svg>
